<?xml version="1.0" encoding="UTF-8" standalone="no"?><!DOCTYPE svg PUBLIC "-//W3C//DTD SVG 1.1//EN" "http://www.w3.org/Graphics/SVG/1.1/DTD/svg11.dtd"><svg width="100%" height="100%" viewBox="0 0 1004 1004" version="1.1" xmlns="http://www.w3.org/2000/svg" xmlns:xlink="http://www.w3.org/1999/xlink" xml:space="preserve" xmlns:serif="http://www.serif.com/" style="fill-rule:evenodd;clip-rule:evenodd;stroke-linecap:round;stroke-linejoin:round;stroke-miterlimit:1.5;"><rect id="Icon-Users" x="0" y="0" width="1003.94" height="1003.94" style="fill:none;"/><g><path d="M311.129,624.765l104.145,-103.286c-0,-0 74.865,43.286 106.056,70.948c41.043,36.399 54.33,73.728 61.149,109.803c8.758,46.341 6.688,180.752 6.688,180.752l-278.042,-0.736" style="fill:none;stroke:#fff;stroke-width:50px;"/><path d="M311.048,624.765l-104.144,-103.286c-0,-0 -74.865,43.286 -106.056,70.948c-41.044,36.399 -54.331,73.728 -61.149,109.803c-8.759,46.341 -6.688,180.752 -6.688,180.752l278.114,-0.736" style="fill:none;stroke:#fff;stroke-width:50px;"/><ellipse cx="310.89" cy="327.863" rx="141.169" ry="141.302" style="fill:none;stroke:#fff;stroke-width:50px;"/><path d="M692.889,559.159l104.144,-103.287c0,0 74.865,43.287 106.056,70.948c41.044,36.399 54.331,73.728 61.149,109.804c8.759,46.34 6.688,180.752 6.688,180.752l-278.042,-0.737" style="fill:none;stroke:#fff;stroke-width:50px;"/><path d="M692.808,559.159l-104.145,-103.287c0,0 -74.865,43.287 -106.056,70.948c-7.35,6.518 -13.81,13.067 -19.502,19.632" style="fill:none;stroke:#fff;stroke-width:50px;"/><path d="M589.38,816.913l103.504,-0.274" style="fill:none;stroke:#fff;stroke-width:50px;"/><ellipse cx="692.65" cy="262.257" rx="141.169" ry="141.302" style="fill:none;stroke:#fff;stroke-width:50px;"/></g></svg>