<?xml version="1.0" encoding="UTF-8" standalone="no"?><!DOCTYPE svg PUBLIC "-//W3C//DTD SVG 1.1//EN" "http://www.w3.org/Graphics/SVG/1.1/DTD/svg11.dtd"><svg width="100%" height="100%" viewBox="0 0 1004 1004" version="1.1" xmlns="http://www.w3.org/2000/svg" xmlns:xlink="http://www.w3.org/1999/xlink" xml:space="preserve" xmlns:serif="http://www.serif.com/" style="fill-rule:evenodd;clip-rule:evenodd;stroke-linecap:round;stroke-linejoin:round;stroke-miterlimit:1.5;"><rect id="Icon-Checkout" x="0" y="0" width="1003.94" height="1003.94" style="fill:none;"/><path d="M777.724,67.949l-0,56.622c-0,15.625 -12.686,28.311 -28.311,28.311l-163.072,-0c-15.625,-0 -28.311,-12.686 -28.311,-28.311l0,-56.622c0,-15.626 12.686,-28.311 28.311,-28.311l163.072,-0c15.625,-0 28.311,12.685 28.311,28.311Z" style="fill:none;stroke:#fff;stroke-width:50px;"/><path d="M832.081,361.534l1.982,163.921l-663.328,-0.283l-1.133,-163.638c0,-30.782 24.991,-55.772 55.773,-55.772l550.933,-0c30.782,-0 55.773,24.99 55.773,55.772Z" style="fill:none;stroke:#fff;stroke-width:50px;"/><path d="M667.877,303.497l0,-147.218" style="fill:none;stroke:#fff;stroke-width:50px;"/><path d="M283.979,417.307l300.097,0" style="fill:none;stroke:#fff;stroke-width:50px;"/><path d="M304.363,637.001l64.549,-0" style="fill:none;stroke:#fff;stroke-width:50px;"/><path d="M469.7,638.133l64.549,0" style="fill:none;stroke:#fff;stroke-width:50px;"/><path d="M635.036,637.001l64.549,-0" style="fill:none;stroke:#fff;stroke-width:50px;"/><path d="M296.436,731.861l64.549,0" style="fill:none;stroke:#fff;stroke-width:50px;"/><path d="M468.567,734.391l64.549,-0" style="fill:none;stroke:#fff;stroke-width:50px;"/><path d="M642.566,735.391l64.549,-0" style="fill:none;stroke:#fff;stroke-width:50px;"/><path d="M284.376,840.443l64.549,0" style="fill:none;stroke:#fff;stroke-width:50px;"/><path d="M469.964,841.973l64.55,-0" style="fill:none;stroke:#fff;stroke-width:50px;"/><path d="M653.553,839.973l64.549,-0" style="fill:none;stroke:#fff;stroke-width:50px;"/><path d="M159.41,599.63c0,0 -52.281,239.889 -50.96,300.097c0.627,28.555 27.219,58.781 55.49,60.02c142.122,6.228 523.377,0.189 661.346,4.53c31.216,0.982 69.727,-29.925 70.212,-61.152c0.944,-60.775 -48.695,-302.362 -48.695,-302.362" style="fill:none;stroke:#fff;stroke-width:50px;"/></svg>