<?xml version="1.0" encoding="UTF-8" standalone="no"?><!DOCTYPE svg PUBLIC "-//W3C//DTD SVG 1.1//EN" "http://www.w3.org/Graphics/SVG/1.1/DTD/svg11.dtd"><svg width="100%" height="100%" viewBox="0 0 1004 1004" version="1.1" xmlns="http://www.w3.org/2000/svg" xmlns:xlink="http://www.w3.org/1999/xlink" xml:space="preserve" xmlns:serif="http://www.serif.com/" style="fill-rule:evenodd;clip-rule:evenodd;stroke-linecap:round;stroke-linejoin:round;stroke-miterlimit:1.5;"><rect id="Icon-Cashiers" x="0" y="0" width="1003.94" height="1003.94" style="fill:none;"/><path d="M117.16,387.546l-0,46.909c-0,12.945 10.509,23.454 23.454,23.454l100.819,0c12.945,0 23.454,-10.509 23.454,-23.454l0,-46.909c0,-12.944 -10.509,-23.454 -23.454,-23.454l-100.819,0c-12.945,0 -23.454,10.51 -23.454,23.454Z" style="fill:none;stroke:#fff;stroke-width:50px;"/><path d="M80.609,580.748l-1.333,110.328l446.038,-0.19l0.761,-110.138c0,-20.718 -16.804,-37.539 -37.503,-37.539l-370.46,0c-20.699,0 -37.503,16.821 -37.503,37.539Z" style="fill:none;stroke:#fff;stroke-width:50px;"/><path d="M191.024,541.685l-0,-70.778" style="fill:none;stroke:#fff;stroke-width:50px;"/><path d="M449.166,618.286l-201.793,-0" style="fill:none;stroke:#fff;stroke-width:50px;"/><path d="M435.459,789.837l-43.404,0" style="fill:none;stroke:#fff;stroke-width:50px;"/><path d="M324.283,789.837l-43.405,0" style="fill:none;stroke:#fff;stroke-width:50px;"/><path d="M213.107,789.837l-43.405,0" style="fill:none;stroke:#fff;stroke-width:50px;"/><path d="M448.899,890.999l-43.405,0" style="fill:none;stroke:#fff;stroke-width:50px;"/><path d="M324.105,892.029l-43.405,-0" style="fill:none;stroke:#fff;stroke-width:50px;"/><path d="M200.656,890.683l-43.405,-0" style="fill:none;stroke:#fff;stroke-width:50px;"/><path d="M537.977,758.678c0,-0 30.107,131.699 29.218,172.223c-0.421,19.219 -18.302,39.563 -37.312,40.397c-95.566,4.192 -351.931,0.127 -444.705,3.048c-20.99,0.661 -46.886,-20.141 -47.212,-41.158c-0.635,-40.905 28.409,-176.566 28.409,-176.566" style="fill:none;stroke:#fff;stroke-width:50px;"/><path d="M447.255,467.779l137.926,-99.461l102.549,99.461l104.145,-103.286c-0,-0 74.865,43.286 106.056,70.948c41.043,36.399 54.33,73.728 61.149,109.803c8.758,46.341 6.688,180.752 6.688,180.752l-361.162,-0.956c-0,-0 3.662,-126.124 -1.911,-166.407c-4.514,-32.624 -23.323,-58.926 -49.07,-74.168c-27.119,-16.053 -106.37,-16.686 -106.37,-16.686Z" style="fill:none;stroke:#fff;stroke-width:50px;"/><ellipse cx="687.491" cy="170.877" rx="141.169" ry="141.302" style="fill:none;stroke:#fff;stroke-width:50px;"/></svg>